<svg data-v-d3f97b9e="" xmlns="http://www.w3.org/2000/svg" viewBox="0 0 314 95"><!----><!----><!----><g data-v-d3f97b9e="" id="659c7a4b-ffe0-4fd0-82fe-d57aa123b0f9" fill="white" transform="matrix(4.276549816131592,0,0,4.276549816131592,111.87269592285156,5.099674701690674)"><path d="M9.09 13.15L9.09 13.29L6.79 13.29L6.79 13.29Q6.30 12.68 3.16 8.44L3.16 8.44L3.16 10.35L3.16 10.35Q3.16 10.86 3.23 11.87L3.23 11.87L3.23 11.87Q3.29 12.87 3.37 13.19L3.37 13.19L3.37 13.29L1.51 13.29L1.51 13.19L1.51 13.19Q1.72 12.38 1.72 10.35L1.72 10.35L1.72 6.44L1.72 6.44Q1.72 4.40 1.51 3.58L1.51 3.58L1.51 3.49L3.37 3.49L3.37 3.58L3.37 3.58Q3.29 3.91 3.23 4.91L3.23 4.91L3.23 4.91Q3.16 5.92 3.16 6.44L3.16 6.44L3.16 8.12L5.45 5.17L5.45 5.17Q6.34 4.00 6.34 3.49L6.34 3.49L8.11 3.49L8.11 3.63L8.11 3.63Q7.52 3.72 6.47 5.10L6.47 5.10L4.30 7.90L6.12 10.25L6.12 10.25Q7.21 11.65 7.90 12.33L7.90 12.33L7.90 12.33Q8.60 13.01 9.09 13.15L9.09 13.15ZM11.42 13.12L11.42 13.29L9.65 13.29L9.65 13.12L9.65 13.12Q9.88 12.42 9.88 10.91L9.88 10.91L9.88 5.07L9.88 5.07Q9.88 3.95 9.24 3.33L9.24 3.33L9.24 3.16L11.16 2.83L11.24 2.97L11.24 2.97Q11.20 3.37 11.20 4.13L11.20 4.13L11.20 9.06L13.58 7.07L13.58 7.07Q13.97 6.75 13.97 6.57L13.97 6.57L15.58 6.57L15.58 6.73L15.58 6.73Q15.32 6.76 14.27 7.60L14.27 7.60L12.28 9.31L14.03 11.19L14.03 11.19Q14.99 12.25 15.41 12.61L15.41 12.61L15.41 12.61Q15.83 12.98 16.23 13.12L16.23 13.12L16.23 13.29L14.14 13.29L14.14 13.29Q14.14 13.26 11.20 9.76L11.20 9.76L11.20 10.91L11.20 10.91Q11.20 12.46 11.42 13.12L11.42 13.12ZM19.32 13.44L19.32 13.44L19.32 13.44Q18.14 13.44 17.68 12.83L17.68 12.83L17.68 12.83Q17.21 12.22 17.21 10.95L17.21 10.95L17.21 8.95L17.21 8.95Q17.21 7.62 16.79 6.66L16.79 6.66L16.79 6.57L18.73 6.57L18.73 6.66L18.73 6.66Q18.52 7.41 18.52 8.53L18.52 8.53L18.52 10.72L18.52 10.72Q18.52 11.56 18.73 11.93L18.73 11.93L18.73 11.93Q18.94 12.29 19.75 12.29L19.75 12.29L19.75 12.29Q20.57 12.29 21.66 11.52L21.66 11.52L21.66 8.95L21.66 8.95Q21.66 7.59 21.25 6.66L21.25 6.66L21.25 6.57L23.18 6.57L23.18 6.66L23.18 6.66Q22.97 7.41 22.97 8.53L22.97 8.53L22.97 10.89L22.97 10.89Q22.97 11.51 23.18 12.10L23.18 12.10L23.18 12.10Q23.39 12.70 23.67 12.89L23.67 12.89L23.69 13.06L22.05 13.45L22.05 13.45Q21.81 12.81 21.71 12.22L21.71 12.22L21.71 12.22Q21.03 12.81 20.47 13.13L20.47 13.13L20.47 13.13Q19.91 13.44 19.32 13.44ZM27.12 8.25L27.12 12.05L27.12 12.05Q28.04 12.53 28.85 12.53L28.85 12.53L28.85 12.53Q29.67 12.53 29.96 12.36L29.96 12.36L29.96 12.36Q30.20 12.08 30.38 11.30L30.38 11.30L30.38 11.30Q30.56 10.51 30.56 9.79L30.56 9.79L30.56 9.79Q30.56 7.45 29.11 7.45L29.11 7.45L29.11 7.45Q28.29 7.45 27.12 8.25L27.12 8.25ZM27.12 4.13L27.12 4.13L27.12 7.45L27.12 7.45Q28.28 6.41 29.44 6.41L29.44 6.41L29.44 6.41Q30.59 6.41 31.33 7.32L31.33 7.32L31.33 7.32Q32.06 8.23 32.06 9.53L32.06 9.53L32.06 9.53Q32.06 11.17 31.07 12.31L31.07 12.31L31.07 12.31Q30.07 13.44 28.78 13.44L28.78 13.44L28.78 13.44Q27.48 13.44 25.65 12.85L25.65 12.85L25.65 12.77L25.65 12.77Q25.80 12.35 25.80 10.85L25.80 10.85L25.80 5.07L25.80 5.07Q25.80 3.96 25.14 3.33L25.14 3.33L25.14 3.16L27.08 2.83L27.16 2.97L27.16 2.97Q27.12 3.37 27.12 4.13ZM35.35 8.25L35.35 12.05L35.35 12.05Q36.27 12.53 37.09 12.53L37.09 12.53L37.09 12.53Q37.90 12.53 38.19 12.36L38.19 12.36L38.19 12.36Q38.43 12.08 38.61 11.30L38.61 11.30L38.61 11.30Q38.79 10.51 38.79 9.79L38.79 9.79L38.79 9.79Q38.79 7.45 37.34 7.45L37.34 7.45L37.34 7.45Q36.53 7.45 35.35 8.25L35.35 8.25ZM35.35 4.13L35.35 4.13L35.35 7.45L35.35 7.45Q36.51 6.41 37.67 6.41L37.67 6.41L37.67 6.41Q38.82 6.41 39.56 7.32L39.56 7.32L39.56 7.32Q40.29 8.23 40.29 9.53L40.29 9.53L40.29 9.53Q40.29 11.17 39.30 12.31L39.30 12.31L39.30 12.31Q38.30 13.44 37.01 13.44L37.01 13.44L37.01 13.44Q35.71 13.44 33.88 12.85L33.88 12.85L33.88 12.77L33.88 12.77Q34.03 12.35 34.03 10.85L34.03 10.85L34.03 5.07L34.03 5.07Q34.03 3.96 33.38 3.33L33.38 3.33L33.38 3.16L35.31 2.83L35.39 2.97L35.39 2.97Q35.35 3.37 35.35 4.13ZM44.46 12.00L44.46 12.00L44.46 12.00Q45.81 7.90 45.81 7.13L45.81 7.13L45.81 7.13Q45.81 6.89 45.71 6.73L45.71 6.73L45.71 6.57L47.21 6.57L47.21 6.73L47.21 6.73Q47.00 6.92 44.93 13.15L44.93 13.15L44.93 13.15Q43.93 16.06 43.79 16.62L43.79 16.62L43.79 16.73L42.06 16.86L42.04 16.76L42.04 16.76Q43.06 15.54 43.83 13.48L43.83 13.48L43.83 13.48Q43.75 13.24 41.41 7.71L41.41 7.71L41.41 7.71Q41.13 7.06 40.81 6.79L40.81 6.79L40.81 6.62L42.69 6.47L42.69 6.64L42.69 6.64Q42.69 7.00 43.02 8.04L43.02 8.04L43.02 8.04Q43.36 9.09 44.46 12.00Z"></path></g><!----><g data-v-d3f97b9e="" id="a72f4aa2-59a9-4c4c-96aa-ee5ec34e9e9e" transform="matrix(1.0241777896881104,0,0,1.0241777896881104,0.8349869847297668,-1.24853515625)" stroke="none" fill="white"><path d="M26.96 30.984c-4.544 0-8.956 3.624-13.116 10.772-3.544 6.084-2.88 7.86-2.712 8.152.224.388 1 .611 2.124.611 6.388 0 20.132-6.8 26.832-10.459-2.164-3.04-7.216-9.076-13.128-9.076zM26.684 45.8c-3.308 0-6-2.692-6-6s2.692-6 6-6 6 2.692 6 6-2.692 6-6 6zM49.172 58.548c-4.92 0-8.496.524-10.38 1.068 2.084 3.176 6.132 7.94 10.416 7.948 3.276 0 6.504-2.717 9.624-8.076-1.6-.44-4.969-.94-9.66-.94zM72.496 39.8a2 2 0 1 1-3.999.001 2 2 0 0 1 3.999-.001z"></path><path d="M28.684 39.8a2 2 0 1 1-3.999.001 2 2 0 0 1 3.999-.001zM70.221 30.984c-5.937 0-10.969 6.036-13.129 9.068 6.7 3.664 20.448 10.472 26.832 10.472 1.124 0 1.908-.228 2.124-.611.168-.292.832-2.06-2.712-8.152-4.16-7.149-8.572-10.777-13.115-10.777zm.275 14.816c-3.309 0-6-2.692-6-6s2.691-6 6-6 6 2.692 6 6-2.691 6-6 6z"></path><path d="M94.736 19.612c1.451-2.904 1.664-6.216.6-9.332-1.72-5.004-6.404-8.368-11.645-8.368a11.86 11.86 0 0 0-3.676.584c-3.16 1.024-5.695 3.36-7.048 6.356C65.695 4.62 57.416 2.4 48.855 2.4c-9.135 0-17.916 2.552-25.563 7.392-1.852-4.732-6.4-7.876-11.468-7.876-1.252 0-2.484.196-3.676.584A11.674 11.674 0 0 0 1.26 8.424C-.188 11.328-.404 14.64.668 17.752a12.437 12.437 0 0 0 7.404 7.584A44.645 44.645 0 0 0 1.76 48.244c0 25.271 21.128 45.844 47.092 45.844 25.969 0 47.097-20.572 47.097-45.844 0-8.26-2.257-16.276-6.552-23.332a11.658 11.658 0 0 0 5.339-5.3zM13.26 54.523c-3.388 0-4.916-1.424-5.596-2.615-1.476-2.568-.612-6.428 2.724-12.156 4.932-8.472 10.508-12.76 16.58-12.76 10.168 0 17.412 12.236 17.716 12.76a2.001 2.001 0 0 1-.732 2.74c-.868.484-21.136 12.031-30.692 12.031zM51.359 71.8v3.708c3-.752 5.885-3.008 8.604-6.252.708-.836 1.964-1.204 2.815-.492.849.717.953 1.853.248 2.696-4.159 4.96-8.812 7.345-13.819 7.345-8.396 0-14.504-7.164-14.756-7.469-.712-.844-.6-2.1.244-2.813.844-.711 2.1-.104 2.816.736.044.057 4.252 5.292 9.852 6.328V71.8c0-.144.052-.276.084-.411-7.72-1.369-13-11.205-13.24-11.656a2.01 2.01 0 0 1 .368-2.36c2.592-2.552 11.076-2.828 14.596-2.828 5.48 0 12.355.556 14.016 3.188.381.604.412 1.367.08 2-3.584 6.795-7.607 10.68-12 11.6.038.155.092.299.092.467zM89.52 51.908c-.684 1.188-2.215 2.611-5.592 2.611-9.56 0-29.824-11.543-30.68-12.032a1.994 1.994 0 0 1-.936-1.22 1.98 1.98 0 0 1 .203-1.52c.305-.524 7.553-12.76 17.721-12.76 6.068 0 11.64 4.292 16.576 12.76 3.316 5.725 4.184 9.589 2.708 12.161z"></path></g><!----></svg>